# xmcd
#
# Track frame offsets: 
#        150
#        20089
#        47602
#        67201
#        86043
#        114257
#        134126
#        167158
#        185350
#        204619
#        226575
#        255008
#        275603
#        287098
#
# Disc length: 4080 seconds
#
# Revision: 1
# Processed by: cddbd v1.5.2PL0 Copyright (c) Steve Scherf et al.
# Submitted via: ExactAudioCopyFreeDBPlugin 1.0
#
DISCID=c90fee0e
DTITLE=Otis Clay - Truth Is (Putting Love Back Into The Music)
DYEAR=2012
DGENRE=Rhythm and Blues
TTITLE0=Love's After Me
TTITLE1=Even Now
TTITLE2=I Thought You Knew
TTITLE3=All That's Missing is You
TTITLE4=Walk a Mile in My Shoes
TTITLE5=Truth Is
TTITLE6=I Know I'm Over You
TTITLE7=Even When I Win (Sometimes I Lose)
TTITLE8=Steal Away to Hide Away
TTITLE9=I Keep Trying (Not to Break Down)
TTITLE10=That's What You Ought to Do
TTITLE11=The Only Way is Up
TTITLE12=All That is Missing is You
TTITLE13=Messing with My Mind
EXTD=
EXTT0=
EXTT1=
EXTT2=
EXTT3=
EXTT4=
EXTT5=
EXTT6=
EXTT7=
EXTT8=
EXTT9=
EXTT10=
EXTT11=
EXTT12=
EXTT13=
PLAYORDER=
